<svg width="1200" height="800" viewBox="0 0 1200 800" fill="none" xmlns="http://www.w3.org/2000/svg">
  <rect width="1200" height="800" rx="48" fill="#1E1B4B"/>
  <circle cx="286" cy="186" r="94" fill="#F8FAFC" fill-opacity="0.92"/>
  <path d="M324 164C348 141 380 132 422 138C467 145 497 172 521 205" stroke="#FBBF24" stroke-width="14" stroke-linecap="round"/>
  <path d="M164 484C256 416 348 392 458 392C572 392 648 421 752 440C857 458 977 462 1090 410" stroke="#C4B5FD" stroke-width="10" stroke-linecap="round"/>
  <path d="M160 548C260 480 355 452 465 452C585 452 659 483 771 498C891 514 1000 504 1096 458" stroke="#34D399" stroke-width="12" stroke-linecap="round"/>
  <path d="M144 612H510" stroke="#F8FAFC" stroke-opacity="0.68" stroke-width="8" stroke-linecap="round"/>
  <path d="M144 646H646" stroke="#F8FAFC" stroke-opacity="0.36" stroke-width="8" stroke-linecap="round"/>
  <text x="144" y="160" fill="#EDE9FE" font-family="Arial, sans-serif" font-size="34" letter-spacing="8">ATMOSFERA E PREVISAO</text>
  <text x="144" y="248" fill="#F8FAFC" font-family="Arial, sans-serif" font-size="78" font-weight="700">Modelagem climatica e extremos</text>
</svg>
